<?xml version="1.0" standalone="no"?>
<!DOCTYPE svg PUBLIC "-//W3C//DTD SVG 20010904//EN"
 "http://www.w3.org/TR/2001/REC-SVG-20010904/DTD/svg10.dtd">
<svg version="1.0" xmlns="http://www.w3.org/2000/svg"
 width="1200.000000pt" height="1200.000000pt" viewBox="0 0 1200.000000 1200.000000"
 preserveAspectRatio="xMidYMid meet">
<metadata>
Created by potrace 1.11, written by Peter Selinger 2001-2013
</metadata>
<g transform="translate(0.000000,1200.000000) scale(0.100000,-0.100000)"
fill="#000000" stroke="none">
<path d="M5395 9374 c-34 -34 -42 -49 -44 -85 -1 -24 -4 -57 -6 -74 -2 -16 -3
-39 -4 -51 -1 -19 -11 -23 -88 -35 -52 -8 -121 -12 -168 -9 -44 3 -154 4 -245
2 -212 -4 -1035 -6 -1295 -3 -318 4 -2137 -6 -2165 -11 -14 -3 -56 -9 -95 -12
-87 -9 -187 -31 -225 -51 -48 -25 -55 -84 -54 -430 0 -165 4 -322 8 -350 9
-51 10 -92 20 -770 7 -410 11 -583 21 -805 20 -465 29 -663 40 -850 7 -117 15
-257 20 -355 3 -49 8 -121 10 -160 3 -38 7 -113 10 -165 3 -52 8 -125 11 -161
3 -36 7 -94 8 -130 9 -158 18 -285 21 -297 5 -15 126 -71 152 -70 24 1 207
-10 313 -19 76 -6 140 -7 345 -4 33 1 98 -1 145 -3 47 -3 93 -5 104 -5 17 -1
18 -9 11 -158 -15 -348 -15 -635 1 -708 31 -152 43 -160 126 -98 134 103 209
177 400 399 184 214 370 402 482 488 94 71 111 76 284 83 152 6 282 6 1227 2
242 -1 494 0 560 3 110 4 180 -1 268 -18 17 -3 56 -7 86 -8 54 -1 55 0 93 47
28 36 38 59 39 85 0 21 2 46 5 57 6 33 6 173 0 184 -3 5 -8 92 -10 194 l-4
185 31 4 c90 14 1070 8 1084 -5 1 -2 5 -108 8 -237 3 -128 8 -256 10 -284 17
-186 22 -206 56 -206 22 0 237 210 380 370 46 52 141 154 211 225 l128 131
210 2 210 3 1 -53 c0 -29 2 -66 4 -83 1 -16 6 -77 10 -135 15 -225 20 -274 36
-358 19 -97 28 -105 111 -111 76 -5 221 -7 298 -4 92 4 184 5 553 7 l379 2 78
-91 c42 -49 91 -106 109 -125 17 -19 47 -58 66 -86 72 -107 295 -340 369 -385
61 -37 67 -25 65 148 -2 212 1 526 6 533 2 4 57 7 122 8 290 4 502 25 579 57
22 9 35 24 43 47 13 40 30 160 24 170 -2 5 -6 106 -8 225 -3 120 -7 232 -9
248 -5 28 -8 158 -21 825 -3 157 -8 317 -10 355 -2 39 -6 138 -10 220 -3 83
-7 193 -10 245 -3 52 -7 133 -10 180 -5 114 -15 278 -21 370 -2 41 -7 116 -9
165 -3 50 -7 120 -10 157 -4 36 -8 104 -10 150 -2 45 -7 121 -10 168 -3 47 -8
114 -10 150 -2 36 -7 112 -11 170 -4 58 -7 111 -7 117 0 7 -8 20 -18 29 -16
14 -101 16 -816 20 -439 2 -829 6 -868 9 -38 3 -206 6 -372 7 -267 1 -303 3
-307 17 -3 9 -8 72 -11 141 -4 69 -8 154 -11 190 -2 36 -6 103 -9 150 -3 47
-7 118 -10 159 -2 43 -10 80 -17 86 -19 17 -108 49 -143 51 -117 7 -230 15
-290 20 -78 8 -195 10 -270 5 -48 -3 -146 2 -285 16 -36 3 -76 6 -90 5 -14 0
-97 -4 -185 -9 -88 -4 -225 -7 -305 -7 -390 3 -631 3 -795 1 -181 -3 -405 6
-460 18 -16 4 -50 8 -74 9 -39 1 -48 -3 -86 -40z m1182 -740 c87 -24 145 -96
177 -220 27 -106 43 -315 27 -357 -10 -25 -15 -27 -63 -27 -72 0 -138 32 -139
68 0 15 -2 38 -4 52 -2 14 -6 57 -9 95 -9 115 -22 149 -70 180 -72 47 -159 16
-210 -75 -28 -50 -31 -63 -31 -140 0 -48 8 -118 18 -160 10 -41 25 -101 32
-133 20 -84 69 -184 161 -332 45 -72 101 -169 124 -215 23 -47 51 -101 61
-120 34 -59 61 -124 66 -155 3 -16 8 -34 12 -40 26 -34 67 -204 86 -360 4 -27
8 -61 11 -75 6 -36 6 -263 0 -280 -3 -8 -8 -33 -11 -54 -15 -106 -56 -205
-102 -247 -63 -59 -108 -74 -228 -74 -174 0 -305 52 -337 134 -20 51 -38 127
-44 191 -8 87 -8 605 0 619 4 6 17 11 29 11 12 0 45 1 72 2 28 1 63 -2 77 -5
l27 -7 -1 -248 c0 -136 2 -263 6 -282 30 -154 69 -211 149 -216 56 -3 118 51
139 121 19 64 15 414 -7 511 -30 140 -127 351 -374 815 -62 118 -115 250 -125
312 -3 19 -10 45 -15 58 -4 13 -11 42 -15 64 -3 22 -8 51 -11 65 -21 94 -9
232 28 310 14 30 70 103 105 135 39 37 129 78 180 83 26 2 48 5 50 7 9 9 114
1 159 -11z m938 -280 c127 -60 186 -165 209 -374 20 -170 29 -1438 12 -1615
-4 -49 -9 -107 -11 -127 -2 -20 -17 -68 -35 -106 -29 -64 -36 -72 -87 -97 -66
-32 -122 -42 -223 -39 -137 4 -217 47 -259 139 -35 78 -51 144 -72 305 -6 47
-12 96 -15 110 -30 185 -23 1213 10 1458 3 20 8 57 11 82 19 149 85 232 220
279 76 26 164 21 240 -15z m-5200 -266 c24 -27 69 -158 80 -228 4 -25 9 -54
11 -65 2 -16 56 -312 78 -430 3 -16 11 -57 16 -90 6 -33 13 -71 16 -85 2 -14
6 -38 9 -55 3 -16 8 -37 10 -45 2 -8 7 -31 10 -50 3 -19 8 -46 10 -60 3 -14 7
-36 10 -50 3 -14 12 -59 20 -100 8 -41 17 -86 20 -100 30 -159 58 -281 126
-549 44 -173 82 -317 83 -319 2 -1 6 10 9 25 7 35 0 1112 -8 1328 -3 88 -8
246 -10 350 -2 105 -7 267 -10 362 -5 159 -5 173 12 181 24 13 189 10 202 -3
6 -6 13 -99 17 -215 9 -300 13 -2362 4 -2385 -6 -17 -18 -20 -126 -22 -127 -4
-195 11 -209 45 -31 77 -92 296 -170 612 -2 8 -11 42 -20 75 -22 79 -43 166
-50 207 -3 18 -13 61 -21 95 -8 34 -14 67 -13 75 2 7 -2 29 -9 48 -14 42 -58
264 -67 335 -3 28 -9 64 -12 80 -11 51 -13 59 -18 95 -3 19 -7 46 -9 60 -31
167 -38 209 -41 235 -14 161 -20 -104 -18 -810 2 -368 4 -764 5 -878 3 -242 9
-230 -102 -233 -80 -2 -117 10 -122 39 -7 35 12 2295 20 2504 l2 42 48 4 c26
2 81 2 122 1 65 -2 77 -5 95 -26z m1400 -184 c91 -42 188 -157 238 -282 31
-76 64 -205 73 -287 3 -33 8 -63 10 -66 11 -19 18 -357 18 -859 1 -562 0 -577
-22 -668 -37 -154 -60 -191 -145 -236 -57 -30 -88 -37 -183 -40 -79 -3 -134 9
-216 48 -78 37 -128 96 -166 198 -31 85 -37 108 -47 213 -3 33 -8 71 -10 85
-23 131 -23 1241 0 1460 19 181 73 321 150 389 92 81 193 96 300 45z m5780
-72 c4 -9 9 -50 12 -89 8 -105 -3 -119 -93 -117 -94 2 -346 5 -364 4 -13 0
-15 -68 -14 -557 l1 -558 135 -3 c108 -2 137 -6 142 -17 3 -8 8 -55 12 -105 6
-73 4 -90 -7 -91 -15 -2 -142 -6 -244 -8 l-60 -1 1 -67 c1 -38 5 -212 8 -388
4 -176 9 -338 11 -360 3 -22 7 -95 9 -163 4 -119 4 -122 -17 -127 -44 -10
-173 -11 -203 -2 l-31 9 3 472 c2 259 6 750 8 1092 5 600 13 1001 21 1046 3
12 9 26 14 31 5 5 114 11 242 14 129 3 235 6 236 7 1 0 40 0 86 -2 69 -3 87
-7 92 -20z m-4696 5 c103 -2 105 -2 111 -27 8 -28 5 -119 -4 -157 -6 -23 -9
-23 -131 -23 -69 0 -126 -3 -126 -7 -4 -27 -8 -144 -8 -238 0 -60 0 -218 0
-350 1 -132 0 -253 0 -270 -1 -52 9 -881 13 -1092 5 -233 16 -214 -111 -208
-59 3 -80 8 -90 21 -13 18 -14 48 -14 304 0 247 0 390 -1 1118 l-1 722 -26 1
c-14 1 -75 2 -136 2 -69 1 -113 6 -117 13 -9 14 -12 164 -4 185 7 15 152 17
645 6z m5131 -271 c233 -22 305 -164 294 -581 -3 -99 -7 -205 -9 -235 -17
-229 -68 -361 -186 -479 l-69 -68 63 -33 c79 -42 103 -64 132 -120 51 -100 72
-286 72 -615 0 -145 -4 -255 -10 -262 -11 -15 -144 -18 -165 -4 -9 5 -15 40
-17 112 -9 231 -18 356 -41 547 -7 64 -23 111 -48 145 -22 30 -122 91 -167
102 -23 6 -27 3 -34 -22 -9 -34 -14 -167 -19 -546 -2 -204 -7 -292 -15 -300
-13 -13 -174 -17 -187 -4 -7 7 -7 233 1 382 8 156 16 613 20 1179 6 719 9 778
40 790 7 2 69 8 137 12 68 3 124 8 126 9 2 2 11 1 20 -1 9 -2 37 -6 62 -8z
m-1369 -2097 c17 -33 18 -106 1 -171 -13 -53 -19 -62 -48 -74 -33 -14 -80 -13
-118 2 -15 6 -6 12 40 28 53 19 60 25 72 60 13 42 19 79 21 139 1 41 14 48 32
16z"/>
<path d="M7328 8192 c-43 -5 -85 -61 -93 -124 -15 -105 -16 -150 -15 -618 2
-845 7 -949 57 -1105 41 -127 104 -177 186 -146 46 18 62 57 72 185 3 39 8 94
10 121 10 117 1 1442 -10 1520 -13 94 -60 146 -146 163 -19 4 -46 6 -61 4z"/>
<path d="M3574 7690 c-25 -10 -68 -63 -82 -100 -11 -29 -20 -97 -29 -224 -9
-118 -10 -1256 -2 -1361 8 -100 31 -178 69 -238 34 -54 73 -77 140 -82 40 -3
57 2 97 27 110 69 106 23 99 1093 -5 590 -10 629 -119 792 -28 42 -54 68 -82
82 -46 23 -59 24 -91 11z"/>
<path d="M9740 7367 c-16 -43 -25 -969 -10 -998 15 -28 69 -25 115 7 141 95
194 265 199 639 5 305 -31 368 -212 379 l-80 5 -12 -32z"/>
<path d="M5140 3246 c0 -2 8 -10 18 -17 15 -13 16 -12 3 4 -13 16 -21 21 -21
13z"/>
<path d="M2945 3200 c-3 -6 1 -7 9 -4 18 7 21 14 7 14 -6 0 -13 -4 -16 -10z"/>
<path d="M3559 3153 c-13 -16 -12 -17 4 -4 16 13 21 21 13 21 -2 0 -10 -8 -17
-17z"/>
<path d="M4020 3126 c0 -2 8 -10 18 -17 15 -13 16 -12 3 4 -13 16 -21 21 -21
13z"/>
<path d="M5273 3115 c0 -8 4 -12 9 -9 5 3 6 10 3 15 -9 13 -12 11 -12 -6z"/>
<path d="M2973 3025 c0 -8 4 -12 9 -9 5 3 6 10 3 15 -9 13 -12 11 -12 -6z"/>
<path d="M2646 3018 c3 -5 10 -6 15 -3 13 9 11 12 -6 12 -8 0 -12 -4 -9 -9z"/>
<path d="M3055 3019 c-3 -4 2 -6 10 -5 21 3 28 13 10 13 -9 0 -18 -4 -20 -8z"/>
<path d="M3430 3020 c0 -5 5 -10 11 -10 5 0 7 5 4 10 -3 6 -8 10 -11 10 -2 0
-4 -4 -4 -10z"/>
<path d="M3475 3021 c-3 -5 -2 -12 3 -15 5 -3 9 1 9 9 0 17 -3 19 -12 6z"/>
<path d="M2913 3005 c0 -8 4 -12 9 -9 5 3 6 10 3 15 -9 13 -12 11 -12 -6z"/>
<path d="M3277 3013 c-10 -9 -9 -23 1 -23 5 0 9 7 9 15 0 17 -1 18 -10 8z"/>
<path d="M2630 3001 c0 -6 4 -13 10 -16 6 -3 7 1 4 9 -7 18 -14 21 -14 7z"/>
<path d="M3174 2996 c1 -8 5 -18 8 -22 4 -3 5 1 4 10 -1 8 -5 18 -8 22 -4 3
-5 -1 -4 -10z"/>
<path d="M2275 2980 c3 -5 8 -10 11 -10 2 0 4 5 4 10 0 6 -5 10 -11 10 -5 0
-7 -4 -4 -10z"/>
<path d="M2373 2975 c0 -8 4 -12 9 -9 5 3 6 10 3 15 -9 13 -12 11 -12 -6z"/>
<path d="M3130 2979 c0 -5 5 -7 10 -4 6 3 10 8 10 11 0 2 -4 4 -10 4 -5 0 -10
-5 -10 -11z"/>
<path d="M3456 2982 c-2 -4 -1 -14 4 -22 7 -11 9 -9 7 8 -1 24 -3 26 -11 14z"/>
<path d="M3575 2981 c-3 -5 -2 -12 3 -15 5 -3 9 1 9 9 0 17 -3 19 -12 6z"/>
<path d="M2473 2955 c0 -8 4 -12 9 -9 5 3 6 10 3 15 -9 13 -12 11 -12 -6z"/>
<path d="M2820 2966 c0 -2 8 -10 18 -17 15 -13 16 -12 3 4 -13 16 -21 21 -21
13z"/>
<path d="M1835 2941 c-3 -5 -2 -12 3 -15 5 -3 9 1 9 9 0 17 -3 19 -12 6z"/>
<path d="M1905 2940 c-3 -6 1 -7 9 -4 18 7 21 14 7 14 -6 0 -13 -4 -16 -10z"/>
<path d="M2214 2936 c1 -8 5 -18 8 -22 4 -3 5 1 4 10 -1 8 -5 18 -8 22 -4 3
-5 -1 -4 -10z"/>
<path d="M2295 2940 c-3 -5 -1 -10 4 -10 6 0 11 5 11 10 0 6 -2 10 -4 10 -3 0
-8 -4 -11 -10z"/>
<path d="M2379 2948 c-5 -16 -4 -46 2 -42 4 2 7 13 6 24 -1 17 -5 26 -8 18z"/>
<path d="M3335 2940 c-3 -5 -1 -10 4 -10 6 0 11 5 11 10 0 6 -2 10 -4 10 -3 0
-8 -4 -11 -10z"/>
<path d="M3410 2940 c0 -5 5 -10 11 -10 5 0 7 5 4 10 -3 6 -8 10 -11 10 -2 0
-4 -4 -4 -10z"/>
<path d="M3614 2936 c1 -8 5 -18 8 -22 4 -3 5 1 4 10 -1 8 -5 18 -8 22 -4 3
-5 -1 -4 -10z"/>
<path d="M3736 2942 c-3 -5 1 -9 9 -9 8 0 12 4 9 9 -3 4 -7 8 -9 8 -2 0 -6 -4
-9 -8z"/>
<path d="M3876 2933 c-6 -14 -5 -15 5 -6 7 7 10 15 7 18 -3 3 -9 -2 -12 -12z"/>
<path d="M4036 2933 c-6 -14 -5 -15 5 -6 7 7 10 15 7 18 -3 3 -9 -2 -12 -12z"/>
<path d="M2633 2925 c0 -8 3 -13 5 -10 3 3 12 -1 21 -7 10 -8 9 -4 -3 10 -23
26 -23 26 -23 7z"/>
<path d="M2330 2921 c0 -6 4 -13 10 -16 6 -3 7 1 4 9 -7 18 -14 21 -14 7z"/>
<path d="M2919 2913 c-13 -16 -12 -17 4 -4 16 13 21 21 13 21 -2 0 -10 -8 -17
-17z"/>
<path d="M3030 2926 c0 -2 7 -7 16 -10 8 -3 12 -2 9 4 -6 10 -25 14 -25 6z"/>
<path d="M3694 2916 c1 -8 5 -18 8 -22 4 -3 5 1 4 10 -1 8 -5 18 -8 22 -4 3
-5 -1 -4 -10z"/>
<path d="M4115 2920 c-3 -5 -1 -10 4 -10 6 0 11 5 11 10 0 6 -2 10 -4 10 -3 0
-8 -4 -11 -10z"/>
<path d="M2139 2908 c-5 -18 -6 -38 -1 -34 7 8 12 36 6 36 -2 0 -4 -1 -5 -2z"/>
<path d="M2396 2893 c-6 -14 -5 -15 5 -6 7 7 10 15 7 18 -3 3 -9 -2 -12 -12z"/>
<path d="M3535 2900 c-3 -5 -1 -10 4 -10 6 0 11 5 11 10 0 6 -2 10 -4 10 -3 0
-8 -4 -11 -10z"/>
<path d="M2454 2880 c0 -13 4 -16 10 -10 7 7 7 13 0 20 -6 6 -10 3 -10 -10z"/>
<path d="M2487 2879 c7 -7 15 -10 18 -7 3 3 -2 9 -12 12 -14 6 -15 5 -6 -5z"/>
<path d="M2854 2882 c4 -3 14 -7 22 -8 9 -1 13 0 10 4 -4 3 -14 7 -22 8 -9 1
-13 0 -10 -4z"/>
<path d="M3855 2880 c3 -5 8 -10 11 -10 2 0 4 5 4 10 0 6 -5 10 -11 10 -5 0
-7 -4 -4 -10z"/>
<path d="M3976 2878 c3 -5 10 -6 15 -3 13 9 11 12 -6 12 -8 0 -12 -4 -9 -9z"/>
<path d="M4193 2875 c0 -8 4 -12 9 -9 5 3 6 10 3 15 -9 13 -12 11 -12 -6z"/>
<path d="M2210 2859 c0 -5 5 -7 10 -4 6 3 10 8 10 11 0 2 -4 4 -10 4 -5 0 -10
-5 -10 -11z"/>
<path d="M3415 2860 c3 -5 8 -10 11 -10 2 0 4 5 4 10 0 6 -5 10 -11 10 -5 0
-7 -4 -4 -10z"/>
<path d="M3595 2859 c-3 -4 2 -6 10 -5 21 3 28 13 10 13 -9 0 -18 -4 -20 -8z"/>
<path d="M3654 2862 c4 -3 14 -7 22 -8 9 -1 13 0 10 4 -4 3 -14 7 -22 8 -9 1
-13 0 -10 -4z"/>
<path d="M3776 2862 c-2 -4 -1 -14 4 -22 7 -11 9 -9 7 8 -1 24 -3 26 -11 14z"/>
<path d="M4030 2861 c0 -6 4 -13 10 -16 6 -3 7 1 4 9 -7 18 -14 21 -14 7z"/>
<path d="M2696 2847 c3 -10 9 -15 12 -12 3 3 0 11 -7 18 -10 9 -11 8 -5 -6z"/>
<path d="M2476 2842 c-3 -5 1 -9 9 -9 8 0 12 4 9 9 -3 4 -7 8 -9 8 -2 0 -6 -4
-9 -8z"/>
<path d="M2513 2835 c0 -8 4 -12 9 -9 5 3 6 10 3 15 -9 13 -12 11 -12 -6z"/>
<path d="M2540 2846 c0 -2 8 -10 18 -17 15 -13 16 -12 3 4 -13 16 -21 21 -21
13z"/>
<path d="M2627 2839 c7 -7 15 -10 18 -7 3 3 -2 9 -12 12 -14 6 -15 5 -6 -5z"/>
<path d="M3155 2840 c3 -5 8 -10 11 -10 2 0 4 5 4 10 0 6 -5 10 -11 10 -5 0
-7 -4 -4 -10z"/>
<path d="M4115 2840 c3 -5 8 -10 11 -10 2 0 4 5 4 10 0 6 -5 10 -11 10 -5 0
-7 -4 -4 -10z"/>
<path d="M5233 2835 c0 -8 4 -12 9 -9 5 3 6 10 3 15 -9 13 -12 11 -12 -6z"/>
<path d="M2296 2822 c-3 -5 1 -9 9 -9 8 0 12 4 9 9 -3 4 -7 8 -9 8 -2 0 -6 -4
-9 -8z"/>
<path d="M2810 2819 c0 -5 5 -7 10 -4 6 3 10 8 10 11 0 2 -4 4 -10 4 -5 0 -10
-5 -10 -11z"/>
<path d="M3050 2820 c0 -5 5 -10 11 -10 5 0 7 5 4 10 -3 6 -8 10 -11 10 -2 0
-4 -4 -4 -10z"/>
<path d="M3090 2820 c0 -5 5 -10 11 -10 5 0 7 5 4 10 -3 6 -8 10 -11 10 -2 0
-4 -4 -4 -10z"/>
<path d="M3255 2820 c3 -5 8 -10 11 -10 2 0 4 5 4 10 0 6 -5 10 -11 10 -5 0
-7 -4 -4 -10z"/>
<path d="M3286 2818 c3 -5 10 -6 15 -3 13 9 11 12 -6 12 -8 0 -12 -4 -9 -9z"/>
<path d="M3455 2821 c-3 -5 -2 -12 3 -15 5 -3 9 1 9 9 0 17 -3 19 -12 6z"/>
<path d="M3534 2822 c4 -3 14 -7 22 -8 9 -1 13 0 10 4 -4 3 -14 7 -22 8 -9 1
-13 0 -10 -4z"/>
<path d="M3736 2822 c-3 -5 1 -9 9 -9 8 0 12 4 9 9 -3 4 -7 8 -9 8 -2 0 -6 -4
-9 -8z"/>
<path d="M2435 2809 c-4 -6 -5 -12 -2 -15 2 -3 7 2 10 11 7 17 1 20 -8 4z"/>
<path d="M2675 2809 c-4 -6 -5 -12 -2 -15 2 -3 7 2 10 11 7 17 1 20 -8 4z"/>
<path d="M2395 2801 c-3 -5 -2 -12 3 -15 5 -3 9 1 9 9 0 17 -3 19 -12 6z"/>
<path d="M2635 2800 c3 -5 8 -10 11 -10 2 0 4 5 4 10 0 6 -5 10 -11 10 -5 0
-7 -4 -4 -10z"/>
<path d="M2733 2791 c0 -11 5 -18 9 -15 4 3 5 11 1 19 -7 21 -12 19 -10 -4z"/>
<path d="M5067 2799 c7 -7 15 -10 18 -7 3 3 -2 9 -12 12 -14 6 -15 5 -6 -5z"/>
<path d="M5516 2793 c-6 -14 -5 -15 5 -6 7 7 10 15 7 18 -3 3 -9 -2 -12 -12z"/>
<path d="M2853 2785 c0 -8 4 -12 9 -9 5 3 6 10 3 15 -9 13 -12 11 -12 -6z"/>
<path d="M2453 2769 c-2 -23 3 -25 10 -4 4 8 3 16 -1 19 -4 3 -9 -4 -9 -15z"/>
<path d="M2515 2779 c-3 -4 2 -6 10 -5 21 3 28 13 10 13 -9 0 -18 -4 -20 -8z"/>
<path d="M2574 2782 c4 -3 14 -7 22 -8 9 -1 13 0 10 4 -4 3 -14 7 -22 8 -9 1
-13 0 -10 -4z"/>
<path d="M2766 2782 c-3 -5 1 -9 9 -9 8 0 12 4 9 9 -3 4 -7 8 -9 8 -2 0 -6 -4
-9 -8z"/>
<path d="M3126 2778 c3 -5 10 -6 15 -3 13 9 11 12 -6 12 -8 0 -12 -4 -9 -9z"/>
<path d="M3294 2782 c4 -3 14 -7 22 -8 9 -1 13 0 10 4 -4 3 -14 7 -22 8 -9 1
-13 0 -10 -4z"/>
<path d="M3166 2762 c-3 -5 1 -9 9 -9 8 0 12 4 9 9 -3 4 -7 8 -9 8 -2 0 -6 -4
-9 -8z"/>
<path d="M3610 2766 c0 -2 7 -7 16 -10 8 -3 12 -2 9 4 -6 10 -25 14 -25 6z"/>
<path d="M3679 2713 c-13 -16 -12 -17 4 -4 16 13 21 21 13 21 -2 0 -10 -8 -17
-17z"/>
<path d="M2390 2679 c0 -5 5 -7 10 -4 6 3 10 8 10 11 0 2 -4 4 -10 4 -5 0 -10
-5 -10 -11z"/>
<path d="M3800 2640 c-9 -6 -10 -10 -3 -10 6 0 15 5 18 10 8 12 4 12 -15 0z"/>
</g>
</svg>
